<svg xmlns="http://www.w3.org/2000/svg" version="1.1" xmlns:xlink="http://www.w3.org/1999/xlink" xmlns:svgjs="http://svgjs.com/svgjs" width="1440" height="560" preserveAspectRatio="none" viewBox="0 0 1440 560"><g mask="url(&quot;#SvgjsMask1004&quot;)" fill="none"><path d="M0 505.8L10 446.58L20 390.57L30 327.53L40 264.47L50 200.82L60 259.82L70 313.6L80 330.31L90 353.28L100 290.19L110 287.38L120 306.65L130 348.22L140 374.28L150 330.93L160 289.17L170 273.07L180 245.94L190 192.44L200 148.88L210 181.52L220 166.66L230 204.81L240 173.18L250 226.24L260 179.27L270 208.04L280 173.65L290 131.76L300 121.71L310 163.86L320 170.93L330 211.2L340 165.3L350 160.11L360 226.78L370 237.81L380 206.44L390 269.9L400 218.1L410 192.58L420 228.29L430 238.5L440 230.41L450 196.17L460 224.2L470 197.44L480 219.13L490 192.87L500 187.86L510 253.77L520 185.67L530 207.7L540 220.6L550 188.5L560 204.15L570 177.3L580 229.39L590 282.53L600 251.81L610 317.95L620 255.3L630 224.64L640 169.33L650 238.52L660 218.44L670 210.66L680 230.43L690 208.57L700 211.75L710 188.42L720 233.57L730 281.36L740 273.23L750 223.02L760 227.71L770 174.82L780 227.19L790 173.72L800 112.79L810 163.42L820 221.79L830 158.57L840 134.21L850 109.52L860 157.3L870 92.58L880 131.43L890 149.42L900 206.58L910 273.81L920 234.43L930 245.31L940 265.57L950 212.45L960 175.92L970 214.93L980 190.48L990 190.76L1000 235.01L1010 238.97L1020 190.97L1030 131.34L1040 167.95L1050 199.81L1060 170.21L1070 165.82L1080 188.5L1090 224.38L1100 193.78L1110 205.78L1120 210.41L1130 151.12L1140 119.39L1150 68.07L1160 28.2L1170 46.62L1180 33.96L1190 58.02L1200 110.44L1210 179.04L1220 217.47L1230 251.31L1240 316.36L1250 256.18L1260 279.41L1270 217L1280 180.08L1290 213.44L1300 160.95L1310 139.47L1320 165.99L1330 218.18L1340 155.91L1350 102L1360 110.78L1370 124.2L1380 104.36L1390 101.12L1400 108.04L1410 65L1420 30.66L1430 35.76L1440 17.37" stroke="rgba(45, 183, 242, 1)" stroke-width="2"></path><path d="M0 505.8L10 446.58L20 390.57L30 327.53L40 264.47L50 200.82L60 259.82L70 313.6L80 330.31L90 353.28L100 290.19L110 287.38L120 306.65L130 348.22L140 374.28L150 330.93L160 289.17L170 273.07L180 245.94L190 192.44L200 148.88L210 181.52L220 166.66L230 204.81L240 173.18L250 226.24L260 179.27L270 208.04L280 173.65L290 131.76L300 121.71L310 163.86L320 170.93L330 211.2L340 165.3L350 160.11L360 226.78L370 237.81L380 206.44L390 269.9L400 218.1L410 192.58L420 228.29L430 238.5L440 230.41L450 196.17L460 224.2L470 197.44L480 219.13L490 192.87L500 187.86L510 253.77L520 185.67L530 207.7L540 220.6L550 188.5L560 204.15L570 177.3L580 229.39L590 282.53L600 251.81L610 317.95L620 255.3L630 224.64L640 169.33L650 238.52L660 218.44L670 210.66L680 230.43L690 208.57L700 211.75L710 188.42L720 233.57L730 281.36L740 273.23L750 223.02L760 227.71L770 174.82L780 227.19L790 173.72L800 112.79L810 163.42L820 221.79L830 158.57L840 134.21L850 109.52L860 157.3L870 92.58L880 131.43L890 149.42L900 206.58L910 273.81L920 234.43L930 245.31L940 265.57L950 212.45L960 175.92L970 214.93L980 190.48L990 190.76L1000 235.01L1010 238.97L1020 190.97L1030 131.34L1040 167.95L1050 199.81L1060 170.21L1070 165.82L1080 188.5L1090 224.38L1100 193.78L1110 205.78L1120 210.41L1130 151.12L1140 119.39L1150 68.07L1160 28.2L1170 46.62L1180 33.96L1190 58.02L1200 110.44L1210 179.04L1220 217.47L1230 251.31L1240 316.36L1250 256.18L1260 279.41L1270 217L1280 180.08L1290 213.44L1300 160.95L1310 139.47L1320 165.99L1330 218.18L1340 155.91L1350 102L1360 110.78L1370 124.2L1380 104.36L1390 101.12L1400 108.04L1410 65L1420 30.66L1430 35.76L1440 17.37L1440 560L0 560z" fill="url(#SvgjsLinearGradient1005)"></path></g><defs><mask id="SvgjsMask1004"><rect width="1440" height="560" fill="#ffffff"></rect></mask><linearGradient x1="50%" y1="0%" x2="50%" y2="100%" id="SvgjsLinearGradient1005"><stop stop-opacity="0.65" stop-color="rgba(45, 183, 242, 1)" offset="0"></stop><stop stop-opacity="0" stop-color="#ffffff" offset="0.8"></stop></linearGradient></defs></svg>